# xmcd
#
# Track frame offsets: 
#        150
#        17242
#        37823
#        55398
#        67764
#        89131
#        110628
#        134612
#        150851
#        172209
#        192639
#        219487
#        241979
#        262269
#        282279
#        299902
#
# Disc length: 4284 seconds
#
# Revision: 1
# Processed by: cddbd v1.5.2PL0 Copyright (c) Steve Scherf et al.
# Submitted via: ExactAudioCopyFreeDBPlugin 1.0
#
DISCID=0110ba10
DTITLE=群星 - TEST-CD试音极品08CDA
DYEAR=2012
DGENRE=stereo
TTITLE0=水墨丹青
TTITLE1=雨中飘荡的回忆
TTITLE2=举杯重逢
TTITLE3=佳人曲
TTITLE4=红雪莲
TTITLE5=我的九寨
TTITLE6=春天里
TTITLE7=梨花又开放
TTITLE8=桃花谣
TTITLE9=卓玛
TTITLE10=离开你我哭了
TTITLE11=心中的恋人
TTITLE12=渔家女
TTITLE13=梦
TTITLE14=朋友别哭
TTITLE15=阳光总在风雨后
EXTD=
EXTT0=
EXTT1=
EXTT2=
EXTT3=
EXTT4=
EXTT5=
EXTT6=
EXTT7=
EXTT8=
EXTT9=
EXTT10=
EXTT11=
EXTT12=
EXTT13=
EXTT14=
EXTT15=
PLAYORDER=
